name C:\Users\u0150099\Documents\master_thesis\3dpredictsim\Results\debug\Fal_s1_mtp_sc_cspx10_oy_MTPm_k1_d01_PF_Natali2010_ls146_ig21.mot
datacolumns 126
datarows 4
range 1.07668982 1.10899051
endheader
time	pelvis_tilt	pelvis_list	pelvis_rotation	pelvis_tx	pelvis_ty	pelvis_tz	hip_flexion_l	hip_adduction_l	hip_rotation_l	hip_flexion_r	hip_adduction_r	hip_rotation_r	knee_angle_l	knee_angle_r	ankle_angle_l	ankle_angle_r	subtalar_angle_l	subtalar_angle_r	mtp_angle_l	mtp_angle_r	lumbar_extension	lumbar_bending	lumbar_rotation	arm_flex_l	arm_add_l	arm_rot_l	arm_flex_r	arm_add_r	arm_rot_r	elbow_flex_l	elbow_flex_r	pro_sup_l	pro_sup_r	glut_med1_l/activation	glut_med2_l/activation	glut_med3_l/activation	glut_min1_l/activation	glut_min2_l/activation	glut_min3_l/activation	semimem_l/activation	semiten_l/activation	bifemlh_l/activation	bifemsh_l/activation	sar_l/activation	add_long_l/activation	add_brev_l/activation	add_mag1_l/activation	add_mag2_l/activation	add_mag3_l/activation	tfl_l/activation	pect_l/activation	grac_l/activation	glut_max1_l/activation	glut_max2_l/activation	glut_max3_l/activation	iliacus_l/activation	psoas_l/activation	quad_fem_l/activation	gem_l/activation	peri_l/activation	rect_fem_l/activation	vas_med_l/activation	vas_int_l/activation	vas_lat_l/activation	med_gas_l/activation	lat_gas_l/activation	soleus_l/activation	tib_post_l/activation	flex_dig_l/activation	flex_hal_l/activation	tib_ant_l/activation	per_brev_l/activation	per_long_l/activation	per_tert_l/activation	ext_dig_l/activation	ext_hal_l/activation	ercspn_l/activation	intobl_l/activation	extobl_l/activation	glut_med1_r/activation	glut_med2_r/activation	glut_med3_r/activation	glut_min1_r/activation	glut_min2_r/activation	glut_min3_r/activation	semimem_r/activation	semiten_r/activation	bifemlh_r/activation	bifemsh_r/activation	sar_r/activation	add_long_r/activation	add_brev_r/activation	add_mag1_r/activation	add_mag2_r/activation	add_mag3_r/activation	tfl_r/activation	pect_r/activation	grac_r/activation	glut_max1_r/activation	glut_max2_r/activation	glut_max3_r/activation	iliacus_r/activation	psoas_r/activation	quad_fem_r/activation	gem_r/activation	peri_r/activation	rect_fem_r/activation	vas_med_r/activation	vas_int_r/activation	vas_lat_r/activation	med_gas_r/activation	lat_gas_r/activation	soleus_r/activation	tib_post_r/activation	flex_dig_r/activation	flex_hal_r/activation	tib_ant_r/activation	per_brev_r/activation	per_long_r/activation	per_tert_r/activation	ext_dig_r/activation	ext_hal_r/activation	ercspn_r/activation	intobl_r/activation	extobl_r/activation	
          1.07668982	         -2.92854590	         -0.83689816	          3.34685500	          1.43199746	          0.91123456	         -0.00451073	        -19.30571511	          1.78413760	          8.57258040	         29.26493397	          2.15255519	         -1.31148536	         -3.86799013	        -11.66169524	          2.95272223	          8.85860783	          4.77231279	         -2.08502382	         18.59850188	          4.28365091	         -3.51474568	         -0.08131952	         -1.56754524	          5.57320939	        -13.90218566	         19.33834879	         -4.81809673	        -13.53684416	          7.82039968	         30.70654104	         23.75309508	         86.51662706	         86.51662706	          0.37649884	          0.11412070	          0.07845485	          0.51496201	          0.31753364	          0.13208005	          0.05000137	          0.05000023	          0.05000017	          0.08951707	          0.13733663	          0.05000015	          0.05000021	          0.05000037	          0.05000130	          0.05000095	          0.61738387	          0.05000067	          0.05000063	          0.05088719	          0.05000511	          0.05000197	          0.54247896	          0.76345130	          0.05000031	          0.05000192	          0.06162587	          0.29736078	          0.05642536	          0.05797342	          0.05017117	          0.40673541	          0.50915976	          0.32866695	          0.38263796	          0.50077886	          0.49608925	          0.06840358	          0.05000011	          0.06956379	          0.05000012	          0.05000013	          0.08203692	          0.05000002	          0.05000004	          0.05000004	          0.05000037	          0.05000315	          0.05000122	          0.05001737	          0.05000575	          0.05000183	          0.19477377	          0.06967229	          0.31796190	          0.05000049	          0.05000070	          0.13788295	          0.15088184	          0.14182535	          0.13802628	          0.13407912	          0.05000260	          0.05001323	          0.10811899	          0.05000956	          0.05893593	          0.09984254	          0.06037172	          0.05897260	          0.11256603	          0.05002226	          0.05000129	          0.05000055	          0.05716418	          0.05657096	          0.05001928	          0.05000013	          0.05000057	          0.05335779	          0.05000036	          0.05000032	          0.05000038	          0.42754797	          0.26504075	          0.16364438	          0.18334555	          0.43722785	          0.31180047	          0.07156762	          0.09529036	          0.11412058	
          1.08745672	         -2.93017636	         -0.97402006	          3.67944453	          1.44857778	          0.91038251	         -0.00423859	        -19.20739376	          1.45301265	          8.43804681	         28.95939479	          2.56019263	         -1.24391905	         -5.79810390	        -11.22316937	          2.31176287	          8.81720749	          5.85133467	         -2.33900510	         19.85436779	          4.55691201	         -3.38605448	          0.15024614	         -1.68860398	          5.38114611	        -13.85767447	         19.38649811	         -5.60061434	        -13.48839219	          7.24608225	         31.97902018	         23.23868685	         86.51662706	         86.51662706	          0.33865537	          0.09675771	          0.06651828	          0.43661314	          0.26922223	          0.11198463	          0.05000104	          0.05000020	          0.05000016	          0.07589742	          0.11644155	          0.08126295	          0.05000023	          0.05000035	          0.05000105	          0.05000067	          0.53079379	          0.05008228	          0.05000054	          0.05000206	          0.05000111	          0.05000086	          0.45994309	          0.74091839	          0.05000014	          0.05000058	          0.05224980	          0.33167519	          0.05000089	          0.05000080	          0.05000159	          0.34485226	          0.43169318	          0.27891841	          0.35810038	          0.51033973	          0.48700960	          0.05799626	          0.05531389	          0.10407493	          0.05000010	          0.05000002	          0.06955535	          0.05000002	          0.05000002	          0.05000004	          0.06107389	          0.05000025	          0.05000937	          0.05000019	          0.05000026	          0.05000087	          0.19701868	          0.07578857	          0.31121650	          0.06249988	          0.05003660	          0.11690667	          0.13786974	          0.12024852	          0.16159426	          0.16738009	          0.05000230	          0.07204313	          0.11768147	          0.05897150	          0.10969638	          0.11640547	          0.05118670	          0.05000039	          0.12413978	          0.05000048	          0.05000027	          0.05000010	          0.05000027	          0.05000026	          0.05000022	          0.05945544	          0.05000019	          0.05000002	          0.05829536	          0.05000127	          0.05082164	          0.43711218	          0.27849409	          0.17123540	          0.21462535	          0.44592080	          0.33271549	          0.06573195	          0.08079234	          0.09675761	
          1.09822361	         -2.92741251	         -1.10665053	          3.99923565	          1.46552401	          0.90959274	         -0.00393289	        -19.01969134	          1.11688288	          8.28310578	         28.63462110	          2.96634270	         -1.14220420	         -7.86644651	        -11.40310819	          1.43806997	          8.48763076	          6.97601453	         -2.56401321	         21.09668018	          4.88845117	         -3.23178478	          0.37853002	         -1.80383495	          5.09269263	        -13.80276787	         19.31288386	         -6.41677439	        -13.45755809	          6.91998044	         33.27346091	         22.73295724	         86.51662706	         86.51662706	          0.28713052	          0.08203643	          0.05639781	          0.37018434	          0.22826120	          0.09494664	          0.05000101	          0.05000013	          0.05000009	          0.06434996	          0.09872552	          0.13770761	          0.16485943	          0.05000123	          0.05000257	          0.05000048	          0.45878479	          0.10069429	          0.05000136	          0.05000091	          0.05000055	          0.05000058	          0.38996464	          0.65559729	          0.05000011	          0.05000032	          0.05000012	          0.28456480	          0.13673542	          0.15875327	          0.05001312	          0.29238438	          0.36601281	          0.23648210	          0.31545586	          0.47102900	          0.42220286	          0.05000000	          0.05312505	          0.08824091	          0.05000007	          0.05000002	          0.05897281	          0.05000027	          0.05000019	          0.05000016	          0.05897236	          0.05897212	          0.05000009	          0.05897246	          0.05897243	          0.05001393	          0.16910495	          0.06425773	          0.27254126	          0.05299091	          0.05000134	          0.12683481	          0.17259542	          0.10195357	          0.13701267	          0.18849856	          0.05000014	          0.08202914	          0.09977716	          0.05000018	          0.14608809	          0.22205417	          0.06955304	          0.05178483	          0.24865281	          0.18038478	          0.09319268	          0.05000019	          0.08291235	          0.08100281	          0.07255318	          0.05864977	          0.06100125	          0.05718517	          0.05000014	          0.05897235	          0.05897217	          0.52198861	          0.33130199	          0.17485451	          0.45267047	          0.46783827	          0.30390526	          0.05573112	          0.06850012	          0.08203634	
          1.10899051	         -2.92024674	         -1.24404861	          4.29959595	          1.48276211	          0.90878448	         -0.00361684	        -18.76327818	          0.77394397	          8.10371747	         28.28552230	          3.33109955	         -1.01351105	        -10.02587151	        -12.23498004	          0.33513435	          7.73585328	          8.10510168	         -2.77875586	         22.26907180	          5.26741990	         -3.05766884	          0.61309737	         -1.90899688	          4.71284186	        -13.75065912	         19.17086415	         -7.24535620	        -13.45055548	          6.83131334	         34.61923826	         22.21669702	         86.51662706	         86.51662706	          0.24344481	          0.06955493	          0.05897239	          0.31386238	          0.19353221	          0.08050092	          0.05000451	          0.05000093	          0.05897198	          0.05455940	          0.08370489	          0.20988880	          0.26577277	          0.16673751	          0.05898447	          0.15866913	          0.38898291	          0.08537440	          0.05000317	          0.05896855	          0.05897195	          0.05897258	          0.33063312	          0.58846287	          0.05897240	          0.05897244	          0.05000111	          0.24126946	          0.13460454	          0.13460606	          0.13459935	          0.24789928	          0.31032544	          0.20050231	          0.26746060	          0.39936403	          0.35796666	          0.05000014	          0.05000004	          0.11511395	          0.05000005	          0.05000002	          0.05000036	          0.08601723	          0.05897246	          0.05897259	          0.05000002	          0.05000006	          0.13169355	          0.05000008	          0.05000007	          0.05000009	          0.14337633	          0.05448131	          0.23107521	          0.05000016	          0.05000684	          0.10753759	          0.30068228	          0.33855301	          0.27390865	          0.21513379	          0.05000049	          0.06955402	          0.14593119	          0.13669239	          0.19584009	          0.22559129	          0.05897247	          0.05897255	          0.45612987	          0.15294004	          0.07901386	          0.05897248	          0.07029900	          0.11223988	          0.06151595	          0.05897304	          0.06756757	          0.06051460	          0.05897287	          0.05000003	          0.05000005	          0.44257022	          0.32062590	          0.17391722	          0.38380838	          0.52433681	          0.35727350	          0.05000000	          0.05807811	          0.06955485	
